<svg width="20" height="20" viewBox="0 0 20 20" fill="none" xmlns="http://www.w3.org/2000/svg">
<g id="Group 165796">
<path id="Vector" d="M11.1279 5.50003V9.57534L14.5142 11.6069C14.6847 11.7093 14.8076 11.8753 14.8558 12.0684C14.904 12.2614 14.8735 12.4657 14.7711 12.6363C14.6686 12.8068 14.5026 12.9297 14.3096 12.9779C14.1165 13.0261 13.9122 12.9956 13.7417 12.8932L9.99168 10.6432C9.88069 10.5765 9.78886 10.4822 9.72511 10.3695C9.66137 10.2568 9.62789 10.1295 9.62793 10V5.50003C9.62793 5.30112 9.70695 5.11035 9.8476 4.9697C9.98825 4.82905 10.179 4.75003 10.3779 4.75003C10.5768 4.75003 10.7676 4.82905 10.9083 4.9697C11.0489 5.11035 11.1279 5.30112 11.1279 5.50003ZM10.3779 1.00003C9.1948 0.997081 8.02283 1.22881 6.92986 1.6818C5.83688 2.1348 4.84459 2.80006 4.01043 3.63909C3.32887 4.32909 2.72324 4.99284 2.12793 5.68753V4.00003C2.12793 3.80112 2.04891 3.61035 1.90826 3.4697C1.76761 3.32905 1.57684 3.25003 1.37793 3.25003C1.17902 3.25003 0.988252 3.32905 0.8476 3.4697C0.706947 3.61035 0.62793 3.80112 0.62793 4.00003V7.75003C0.62793 7.94894 0.706947 8.13971 0.8476 8.28036C0.988252 8.42101 1.17902 8.50003 1.37793 8.50003H5.12793C5.32684 8.50003 5.51761 8.42101 5.65826 8.28036C5.79891 8.13971 5.87793 7.94894 5.87793 7.75003C5.87793 7.55112 5.79891 7.36035 5.65826 7.2197C5.51761 7.07905 5.32684 7.00003 5.12793 7.00003H2.97168C3.64199 6.21065 4.30949 5.46722 5.07074 4.69659C6.11311 3.65423 7.43953 2.94216 8.88428 2.64935C10.329 2.35654 11.828 2.49598 13.194 3.05023C14.5599 3.60449 15.7323 4.54899 16.5645 5.76572C17.3967 6.98245 17.8519 8.41745 17.8732 9.89142C17.8946 11.3654 17.4811 12.813 16.6844 14.0532C15.8877 15.2935 14.7432 16.2716 13.3938 16.8651C12.0445 17.4586 10.5501 17.6414 9.09752 17.3905C7.64491 17.1396 6.29845 16.4662 5.22637 15.4544C5.15472 15.3867 5.07043 15.3338 4.97832 15.2986C4.88621 15.2635 4.78808 15.2468 4.68953 15.2496C4.59098 15.2524 4.49395 15.2746 4.40397 15.3149C4.31399 15.3551 4.23283 15.4128 4.16512 15.4844C4.0974 15.5561 4.04447 15.6403 4.00933 15.7325C3.97419 15.8246 3.95754 15.9227 3.96033 16.0212C3.96311 16.1198 3.98528 16.2168 4.02557 16.3068C4.06585 16.3968 4.12346 16.4779 4.19512 16.5457C5.26335 17.5537 6.56207 18.285 7.97793 18.6757C9.3938 19.0665 10.8838 19.1047 12.3178 18.7872C13.7519 18.4696 15.0864 17.806 16.205 16.854C17.3235 15.9021 18.1921 14.6909 18.7349 13.3261C19.2777 11.9613 19.4783 10.4844 19.319 9.02426C19.1598 7.56414 18.6456 6.16517 17.8214 4.94947C16.9971 3.73376 15.8879 2.73825 14.5904 2.04982C13.2929 1.3614 11.8467 1.00098 10.3779 1.00003Z" fill="#212121" stroke="#212121" stroke-width="0.4"/>
</g>
</svg>
